<svg width="65" height="65" viewBox="0 0 65 65" fill="none" xmlns="http://www.w3.org/2000/svg">
<rect opacity="0.1" x="0.304688" y="0.305664" width="63.7459" height="63.7459" rx="16" fill="#EC91D8"/>
<path d="M29.7886 37.4902L28.9918 40.6775L27.9293 41.74H36.4288L35.3664 40.6775L34.5695 37.4902H29.7886ZM22.6172 33.2405H41.7409H22.6172ZM24.742 37.4902H39.6161C40.1796 37.4902 40.7201 37.2664 41.1186 36.8679C41.5171 36.4694 41.7409 35.9289 41.7409 35.3654V24.7411C41.7409 24.1775 41.5171 23.6371 41.1186 23.2386C40.7201 22.8401 40.1796 22.6162 39.6161 22.6162H24.742C24.1785 22.6162 23.638 22.8401 23.2395 23.2386C22.8411 23.6371 22.6172 24.1775 22.6172 24.7411V35.3654C22.6172 35.9289 22.8411 36.4694 23.2395 36.8679C23.638 37.2664 24.1785 37.4902 24.742 37.4902Z" stroke="#EC91D8" stroke-width="2" stroke-linecap="round" stroke-linejoin="round"/>
</svg>
