<svg width="65" height="65" viewBox="0 0 65 65" fill="none" xmlns="http://www.w3.org/2000/svg">
<path d="M36.165 29.4544V39.0175V29.4544ZM31.3834 33.0406V39.0175V33.0406ZM26.6019 36.6267V39.0175V36.6267ZM24.2111 43.799H38.5557C39.1898 43.799 39.7979 43.5472 40.2463 43.0988C40.6946 42.6504 40.9465 42.0423 40.9465 41.4083V27.0636C40.9465 26.4296 40.6946 25.8215 40.2463 25.3731C39.7979 24.9247 39.1898 24.6729 38.5557 24.6729H24.2111C23.577 24.6729 22.9689 24.9247 22.5206 25.3731C22.0722 25.8215 21.8203 26.4296 21.8203 27.0636V41.4083C21.8203 42.0423 22.0722 42.6504 22.5206 43.0988C22.9689 43.5472 23.577 43.799 24.2111 43.799Z" stroke="#227C9D" stroke-width="2" stroke-linecap="round" stroke-linejoin="round"/>
<rect opacity="0.1" x="0.453125" y="0.305664" width="63.7459" height="63.7459" rx="16" fill="#227C9D"/>
</svg>
