<svg width="802" height="384" viewBox="0 0 802 384" fill="none" xmlns="http://www.w3.org/2000/svg">
<g clip-path="url(#clip0_527_9919)">
<g clip-path="url(#clip1_527_9919)">
<rect width="384" height="384" rx="192" fill="#F6F6F6"/>
<g opacity="0.75" filter="url(#filter0_d_527_9919)">
<path d="M-255.629 275.924V-183H402.921V314.965C318.315 346.197 270.753 342.293 192.093 293.492C78.904 223.27 -113.4 352.053 -255.629 275.924Z" fill="#EC91D8"/>
</g>
<g opacity="0.75" filter="url(#filter1_d_527_9919)">
<path d="M-256.09 243.716V-177.034H402.46V261.284C267.091 298.372 199.398 260.484 109.771 214.435C-38.4026 138.307 -76.818 284.708 -256.09 243.716Z" fill="#A9DDD6"/>
</g>
<g opacity="0.75" filter="url(#filter2_d_527_9919)">
<path d="M402.922 169.05V-183H-257V320.332C-89.6184 330.092 -21.7588 286.74 74.3269 237.941C230.035 158.861 276.7 225.659 402.922 169.05Z" fill="#FFC857"/>
</g>
</g>
<path d="M449.6 234.48C452.213 238 455.067 240.48 458.16 241.92C461.307 243.36 464.747 244.08 468.48 244.08C476.107 244.08 481.947 241.387 486 236C490.053 230.613 492.08 222.587 492.08 211.92C492.08 202 490.267 194.72 486.64 190.08C483.067 185.387 477.947 183.04 471.28 183.04C466.64 183.04 462.587 184.107 459.12 186.24C455.707 188.373 452.533 191.387 449.6 195.28V234.48ZM449.6 184.64C453.013 180.693 456.853 177.547 461.12 175.2C465.44 172.853 470.4 171.68 476 171.68C480.747 171.68 485.013 172.587 488.8 174.4C492.64 176.213 495.893 178.853 498.56 182.32C501.227 185.733 503.253 189.893 504.64 194.8C506.08 199.707 506.8 205.227 506.8 211.36C506.8 217.92 506 223.893 504.4 229.28C502.8 234.667 500.48 239.28 497.44 243.12C494.453 246.907 490.8 249.867 486.48 252C482.16 254.08 477.307 255.12 471.92 255.12C466.587 255.12 462.08 254.133 458.4 252.16C454.773 250.133 451.6 247.28 448.88 243.6L448.16 250.96C447.733 252.987 446.507 254 444.48 254H435.28V136.16H449.6V184.64ZM539.531 136.16V254H525.291V136.16H539.531ZM629.264 172.96V254H620.784C618.757 254 617.477 253.013 616.944 251.04L615.824 242.32C612.304 246.213 608.357 249.36 603.984 251.76C599.61 254.107 594.597 255.28 588.944 255.28C584.517 255.28 580.597 254.56 577.184 253.12C573.824 251.627 570.997 249.547 568.704 246.88C566.41 244.213 564.677 240.987 563.504 237.2C562.384 233.413 561.824 229.227 561.824 224.64V172.96H576.064V224.64C576.064 230.773 577.45 235.52 580.224 238.88C583.05 242.24 587.344 243.92 593.104 243.92C597.317 243.92 601.237 242.933 604.864 240.96C608.544 238.933 611.93 236.16 615.024 232.64V172.96H629.264ZM651.843 254V172.96H660.403C662.429 172.96 663.683 173.947 664.163 175.92L665.203 184.24C668.189 180.56 671.549 177.547 675.283 175.2C679.016 172.853 683.336 171.68 688.243 171.68C693.683 171.68 698.083 173.2 701.443 176.24C704.856 179.28 707.309 183.387 708.803 188.56C709.976 185.627 711.469 183.093 713.283 180.96C715.149 178.827 717.229 177.067 719.523 175.68C721.816 174.293 724.243 173.28 726.803 172.64C729.416 172 732.056 171.68 734.723 171.68C738.989 171.68 742.776 172.373 746.083 173.76C749.443 175.093 752.269 177.067 754.563 179.68C756.909 182.293 758.696 185.52 759.923 189.36C761.149 193.147 761.763 197.493 761.763 202.4V254H747.443V202.4C747.443 196.053 746.056 191.253 743.283 188C740.509 184.693 736.509 183.04 731.283 183.04C728.936 183.04 726.696 183.467 724.563 184.32C722.483 185.12 720.643 186.32 719.043 187.92C717.443 189.52 716.163 191.547 715.203 194C714.296 196.4 713.843 199.2 713.843 202.4V254H699.523V202.4C699.523 195.893 698.216 191.04 695.603 187.84C692.989 184.64 689.176 183.04 684.163 183.04C680.643 183.04 677.389 184 674.403 185.92C671.416 187.787 668.669 190.347 666.163 193.6V254H651.843ZM798.445 172.96V254H784.205V172.96H798.445ZM801.485 147.52C801.485 148.907 801.192 150.213 800.605 151.44C800.072 152.613 799.325 153.68 798.365 154.64C797.458 155.547 796.365 156.267 795.085 156.8C793.858 157.333 792.552 157.6 791.165 157.6C789.778 157.6 788.472 157.333 787.245 156.8C786.072 156.267 785.032 155.547 784.125 154.64C783.218 153.68 782.498 152.613 781.965 151.44C781.432 150.213 781.165 148.907 781.165 147.52C781.165 146.133 781.432 144.827 781.965 143.6C782.498 142.32 783.218 141.227 784.125 140.32C785.032 139.36 786.072 138.613 787.245 138.08C788.472 137.547 789.778 137.28 791.165 137.28C792.552 137.28 793.858 137.547 795.085 138.08C796.365 138.613 797.458 139.36 798.365 140.32C799.325 141.227 800.072 142.32 800.605 143.6C801.192 144.827 801.485 146.133 801.485 147.52Z" fill="#EECA77"/>
</g>
<defs>
<filter id="filter0_d_527_9919" x="-288.629" y="-212" width="728.551" height="588" filterUnits="userSpaceOnUse" color-interpolation-filters="sRGB">
<feFlood flood-opacity="0" result="BackgroundImageFix"/>
<feColorMatrix in="SourceAlpha" type="matrix" values="0 0 0 0 0 0 0 0 0 0 0 0 0 0 0 0 0 0 127 0" result="hardAlpha"/>
<feOffset dx="2" dy="6"/>
<feGaussianBlur stdDeviation="17.5"/>
<feComposite in2="hardAlpha" operator="out"/>
<feColorMatrix type="matrix" values="0 0 0 0 0 0 0 0 0 0 0 0 0 0 0 0 0 0 0.25 0"/>
<feBlend mode="normal" in2="BackgroundImageFix" result="effect1_dropShadow_527_9919"/>
<feBlend mode="normal" in="SourceGraphic" in2="effect1_dropShadow_527_9919" result="shape"/>
</filter>
<filter id="filter1_d_527_9919" x="-289.09" y="-206.034" width="728.551" height="523.306" filterUnits="userSpaceOnUse" color-interpolation-filters="sRGB">
<feFlood flood-opacity="0" result="BackgroundImageFix"/>
<feColorMatrix in="SourceAlpha" type="matrix" values="0 0 0 0 0 0 0 0 0 0 0 0 0 0 0 0 0 0 127 0" result="hardAlpha"/>
<feOffset dx="2" dy="6"/>
<feGaussianBlur stdDeviation="17.5"/>
<feComposite in2="hardAlpha" operator="out"/>
<feColorMatrix type="matrix" values="0 0 0 0 0.552941 0 0 0 0 0.231373 0 0 0 0 0.447059 0 0 0 0.5 0"/>
<feBlend mode="normal" in2="BackgroundImageFix" result="effect1_dropShadow_527_9919"/>
<feBlend mode="normal" in="SourceGraphic" in2="effect1_dropShadow_527_9919" result="shape"/>
</filter>
<filter id="filter2_d_527_9919" x="-290" y="-212" width="729.922" height="574.717" filterUnits="userSpaceOnUse" color-interpolation-filters="sRGB">
<feFlood flood-opacity="0" result="BackgroundImageFix"/>
<feColorMatrix in="SourceAlpha" type="matrix" values="0 0 0 0 0 0 0 0 0 0 0 0 0 0 0 0 0 0 127 0" result="hardAlpha"/>
<feOffset dx="2" dy="6"/>
<feGaussianBlur stdDeviation="17.5"/>
<feComposite in2="hardAlpha" operator="out"/>
<feColorMatrix type="matrix" values="0 0 0 0 0.133333 0 0 0 0 0.486275 0 0 0 0 0.615686 0 0 0 0.6 0"/>
<feBlend mode="normal" in2="BackgroundImageFix" result="effect1_dropShadow_527_9919"/>
<feBlend mode="normal" in="SourceGraphic" in2="effect1_dropShadow_527_9919" result="shape"/>
</filter>
<clipPath id="clip0_527_9919">
<rect width="802" height="384" fill="white"/>
</clipPath>
<clipPath id="clip1_527_9919">
<rect width="384" height="384" rx="192" fill="white"/>
</clipPath>
</defs>
</svg>
