<svg width="1231" height="532" viewBox="0 0 1231 532" fill="none" xmlns="http://www.w3.org/2000/svg">
<g clip-path="url(#clip0_527_9919)">
<rect x="92" y="74" width="384" height="384" rx="192" fill="#F6F6F6"/>
<g opacity="0.75" filter="url(#filter0_d_527_9919)">
<path d="M-163.629 349.924V-109H494.921V388.965C410.315 420.197 362.753 416.293 284.093 367.492C170.904 297.27 -21.4005 426.053 -163.629 349.924Z" fill="#EC91D8"/>
</g>
<g opacity="0.75" filter="url(#filter1_d_527_9919)">
<path d="M-164.09 317.716V-103.034H494.46V335.284C359.091 372.372 291.398 334.484 201.771 288.435C53.5974 212.307 15.182 358.708 -164.09 317.716Z" fill="#A9DDD6"/>
</g>
<g opacity="0.75" filter="url(#filter2_d_527_9919)">
<path d="M494.922 243.05V-109H-165V394.332C2.38162 404.092 70.2412 360.74 166.327 311.941C322.035 232.861 368.7 299.659 494.922 243.05Z" fill="#FFC857"/>
</g>
</g>
<path d="M540.6 308.48C543.213 312 546.067 314.48 549.16 315.92C552.307 317.36 555.747 318.08 559.48 318.08C567.107 318.08 572.947 315.387 577 310C581.053 304.613 583.08 296.587 583.08 285.92C583.08 276 581.267 268.72 577.64 264.08C574.067 259.387 568.947 257.04 562.28 257.04C557.64 257.04 553.587 258.107 550.12 260.24C546.707 262.373 543.533 265.387 540.6 269.28V308.48ZM540.6 258.64C544.013 254.693 547.853 251.547 552.12 249.2C556.44 246.853 561.4 245.68 567 245.68C571.747 245.68 576.013 246.587 579.8 248.4C583.64 250.213 586.893 252.853 589.56 256.32C592.227 259.733 594.253 263.893 595.64 268.8C597.08 273.707 597.8 279.227 597.8 285.36C597.8 291.92 597 297.893 595.4 303.28C593.8 308.667 591.48 313.28 588.44 317.12C585.453 320.907 581.8 323.867 577.48 326C573.16 328.08 568.307 329.12 562.92 329.12C557.587 329.12 553.08 328.133 549.4 326.16C545.773 324.133 542.6 321.28 539.88 317.6L539.16 324.96C538.733 326.987 537.507 328 535.48 328H526.28V210.16H540.6V258.64ZM630.531 210.16V328H616.291V210.16H630.531ZM720.264 246.96V328H711.784C709.757 328 708.477 327.013 707.944 325.04L706.824 316.32C703.304 320.213 699.357 323.36 694.984 325.76C690.61 328.107 685.597 329.28 679.944 329.28C675.517 329.28 671.597 328.56 668.184 327.12C664.824 325.627 661.997 323.547 659.704 320.88C657.41 318.213 655.677 314.987 654.504 311.2C653.384 307.413 652.824 303.227 652.824 298.64V246.96H667.064V298.64C667.064 304.773 668.45 309.52 671.224 312.88C674.05 316.24 678.344 317.92 684.104 317.92C688.317 317.92 692.237 316.933 695.864 314.96C699.544 312.933 702.93 310.16 706.024 306.64V246.96H720.264ZM742.843 328V246.96H751.403C753.429 246.96 754.683 247.947 755.163 249.92L756.203 258.24C759.189 254.56 762.549 251.547 766.283 249.2C770.016 246.853 774.336 245.68 779.243 245.68C784.683 245.68 789.083 247.2 792.443 250.24C795.856 253.28 798.309 257.387 799.803 262.56C800.976 259.627 802.469 257.093 804.283 254.96C806.149 252.827 808.229 251.067 810.523 249.68C812.816 248.293 815.243 247.28 817.803 246.64C820.416 246 823.056 245.68 825.723 245.68C829.989 245.68 833.776 246.373 837.083 247.76C840.443 249.093 843.269 251.067 845.563 253.68C847.909 256.293 849.696 259.52 850.923 263.36C852.149 267.147 852.763 271.493 852.763 276.4V328H838.443V276.4C838.443 270.053 837.056 265.253 834.283 262C831.509 258.693 827.509 257.04 822.283 257.04C819.936 257.04 817.696 257.467 815.563 258.32C813.483 259.12 811.643 260.32 810.043 261.92C808.443 263.52 807.163 265.547 806.203 268C805.296 270.4 804.843 273.2 804.843 276.4V328H790.523V276.4C790.523 269.893 789.216 265.04 786.603 261.84C783.989 258.64 780.176 257.04 775.163 257.04C771.643 257.04 768.389 258 765.403 259.92C762.416 261.787 759.669 264.347 757.163 267.6V328H742.843ZM889.445 246.96V328H875.205V246.96H889.445ZM892.485 221.52C892.485 222.907 892.192 224.213 891.605 225.44C891.072 226.613 890.325 227.68 889.365 228.64C888.458 229.547 887.365 230.267 886.085 230.8C884.858 231.333 883.552 231.6 882.165 231.6C880.778 231.6 879.472 231.333 878.245 230.8C877.072 230.267 876.032 229.547 875.125 228.64C874.218 227.68 873.498 226.613 872.965 225.44C872.432 224.213 872.165 222.907 872.165 221.52C872.165 220.133 872.432 218.827 872.965 217.6C873.498 216.32 874.218 215.227 875.125 214.32C876.032 213.36 877.072 212.613 878.245 212.08C879.472 211.547 880.778 211.28 882.165 211.28C883.552 211.28 884.858 211.547 886.085 212.08C887.365 212.613 888.458 213.36 889.365 214.32C890.325 215.227 891.072 216.32 891.605 217.6C892.192 218.827 892.485 220.133 892.485 221.52Z" fill="#EECA77"/>
<defs>
<filter id="filter0_d_527_9919" x="-196.629" y="-138" width="728.551" height="588" filterUnits="userSpaceOnUse" color-interpolation-filters="sRGB">
<feFlood flood-opacity="0" result="BackgroundImageFix"/>
<feColorMatrix in="SourceAlpha" type="matrix" values="0 0 0 0 0 0 0 0 0 0 0 0 0 0 0 0 0 0 127 0" result="hardAlpha"/>
<feOffset dx="2" dy="6"/>
<feGaussianBlur stdDeviation="17.5"/>
<feComposite in2="hardAlpha" operator="out"/>
<feColorMatrix type="matrix" values="0 0 0 0 0 0 0 0 0 0 0 0 0 0 0 0 0 0 0.25 0"/>
<feBlend mode="normal" in2="BackgroundImageFix" result="effect1_dropShadow_527_9919"/>
<feBlend mode="normal" in="SourceGraphic" in2="effect1_dropShadow_527_9919" result="shape"/>
</filter>
<filter id="filter1_d_527_9919" x="-197.09" y="-132.034" width="728.551" height="523.306" filterUnits="userSpaceOnUse" color-interpolation-filters="sRGB">
<feFlood flood-opacity="0" result="BackgroundImageFix"/>
<feColorMatrix in="SourceAlpha" type="matrix" values="0 0 0 0 0 0 0 0 0 0 0 0 0 0 0 0 0 0 127 0" result="hardAlpha"/>
<feOffset dx="2" dy="6"/>
<feGaussianBlur stdDeviation="17.5"/>
<feComposite in2="hardAlpha" operator="out"/>
<feColorMatrix type="matrix" values="0 0 0 0 0.552941 0 0 0 0 0.231373 0 0 0 0 0.447059 0 0 0 0.5 0"/>
<feBlend mode="normal" in2="BackgroundImageFix" result="effect1_dropShadow_527_9919"/>
<feBlend mode="normal" in="SourceGraphic" in2="effect1_dropShadow_527_9919" result="shape"/>
</filter>
<filter id="filter2_d_527_9919" x="-198" y="-138" width="729.922" height="574.717" filterUnits="userSpaceOnUse" color-interpolation-filters="sRGB">
<feFlood flood-opacity="0" result="BackgroundImageFix"/>
<feColorMatrix in="SourceAlpha" type="matrix" values="0 0 0 0 0 0 0 0 0 0 0 0 0 0 0 0 0 0 127 0" result="hardAlpha"/>
<feOffset dx="2" dy="6"/>
<feGaussianBlur stdDeviation="17.5"/>
<feComposite in2="hardAlpha" operator="out"/>
<feColorMatrix type="matrix" values="0 0 0 0 0.133333 0 0 0 0 0.486275 0 0 0 0 0.615686 0 0 0 0.6 0"/>
<feBlend mode="normal" in2="BackgroundImageFix" result="effect1_dropShadow_527_9919"/>
<feBlend mode="normal" in="SourceGraphic" in2="effect1_dropShadow_527_9919" result="shape"/>
</filter>
<clipPath id="clip0_527_9919">
<rect x="92" y="74" width="384" height="384" rx="192" fill="white"/>
</clipPath>
</defs>
</svg>
